<?xml version="1.0" standalone="no"?><!DOCTYPE svg PUBLIC "-//W3C//DTD SVG 1.1//EN" "http://www.w3.org/Graphics/SVG/1.1/DTD/svg11.dtd"><svg t="1528875963149" class="icon" style="" viewBox="0 0 1024 1024" version="1.1" xmlns="http://www.w3.org/2000/svg" p-id="1076" xmlns:xlink="http://www.w3.org/1999/xlink" width="200" height="200"><defs><style type="text/css"></style></defs><path d="M900.745478 430.904767l-330.418307-308.008394c-16.679524-19.033077-40.82902-29.982212-66.411112-29.982212-25.172779 0-49.322274 10.846807-65.2855 28.8566L120.491656 430.802438c-15.860897 16.270211-20.465674 39.805736-11.665434 60.783052 8.80024 20.977316 29.163585 34.075347 51.880484 34.075347l28.651944 0 0 314.148096c0 48.708304 38.987109 88.309383 87.695413 88.309383l136.608374 0c17.702808 0 33.461377-14.325972 33.461377-32.02878L447.123813 687.032677c0-8.902568 5.832717-16.781853 14.735285-16.781853l96.393325 0c8.902568 0 15.656241 7.981613 15.656241 16.781853l0 208.954532c0 17.805136 14.837614 32.02878 32.540422 32.02878l136.608374 0c48.708304 0 88.616369-39.498751 88.616369-88.309383l0-314.148096 28.549615 0c22.61457 0 42.977915-13.098031 51.778155-33.973019C921.006495 470.812831 916.504047 447.174978 900.745478 430.904767L900.745478 430.904767 900.745478 430.904767M900.745478 430.904767 900.745478 430.904767z" p-id="1077" fill="#ffffff"></path></svg>