<?xml version="1.0" standalone="no"?><!DOCTYPE svg PUBLIC "-//W3C//DTD SVG 1.1//EN" "http://www.w3.org/Graphics/SVG/1.1/DTD/svg11.dtd"><svg t="1534413466782" class="icon" style="" viewBox="0 0 1024 1024" version="1.1" xmlns="http://www.w3.org/2000/svg" p-id="1063" xmlns:xlink="http://www.w3.org/1999/xlink" width="200" height="200"><defs><style type="text/css"></style></defs><path d="M512 0C229.003636 0 0 229.003636 0 512s229.003636 512 512 512 512-229.003636 512-512S794.996364 0 512 0z m260.654545 425.425455l-279.272727 279.272727c-5.585455 5.585455-13.032727 9.309091-21.410909 9.309091-10.24 1.861818-20.48-0.930909-27.927273-8.378182l-175.941818-176.872727a30.906182 30.906182 0 0 1 0-43.752728l14.894546-14.894545c12.101818-12.101818 31.650909-12.101818 43.752727 0l141.498182 141.498182 244.829091-244.829091c12.101818-12.101818 31.650909-12.101818 43.752727 0L772.654545 381.672727c12.101818 12.101818 12.101818 31.650909 0 43.752728z" p-id="1064" fill="#7ecc87"></path></svg>