<?xml version="1.0" standalone="no"?><!DOCTYPE svg PUBLIC "-//W3C//DTD SVG 1.1//EN" "http://www.w3.org/Graphics/SVG/1.1/DTD/svg11.dtd"><svg t="1521017600338" class="icon" style="" viewBox="0 0 1024 1024" version="1.1" xmlns="http://www.w3.org/2000/svg" p-id="994" xmlns:xlink="http://www.w3.org/1999/xlink" width="200" height="200"><defs><style type="text/css"></style></defs><path d="M831.809281 181.339068c-5.953595-22.420639-23.243377-32.174793-45.871747-28.827559-25.02393 3.716648-36.648688 19.730367-34.547841 44.86686 0.945535 11.341303 2.912329 21.684882-9.572006 29.192879-41.624003 25.036209-82.809007 50.78157-124.162858 76.256778-17.862833-22.445198-35.235502-45.304835-53.68162-67.23838-14.559601-17.284665-29.306466-32.05302-13.496385-57.920154 9.523911-15.621792-0.796132-31.6877-14.464433-42.396599-14.032598-10.975982-29.66667-12.543687-45.488007-2.837628-15.57472 9.537214-26.646893 26.626427-18.899442 40.905642 18.142196 33.519418-5.17179 50.173726-21.738094 70.756507-14.864546 18.48705-29.632901 37.068244-44.461631 55.601342l0 0 0 0c-49.593512-16.040325-86.478584-53.372581-130.828674-78.142731-10.367115-5.792936-6.000668-14.6957-5.486968-23.224957 1.648546-26.89658-11.692297-43.543725-37.932937-46.478568-22.704095-2.51938-39.257096 9.146311-43.35339 32.127721-4.683672 26.03598 6.481621 45.131897 33.389458 49.335638 16.918321 2.691295 22.298865 11.466146 26.442232 26.086122 13.554714 48.021713 29.322839 95.452979 42.137703 143.69368 4.548596 17.136286 10.411117 25.524327 29.39754 25.083282 61.272505-1.466398 122.592083-1.540076 183.876867-2.149966 67.378573 0.683569 134.800126 0.466628 202.149023 2.541893 20.179598 0.608867 25.75457-9.462512 30.072923-25.137517 12.971429-46.816259 26.206872-93.541443 39.618323-140.241045 4.052293-14.134929 7.629771-26.773783 26.737968-30.782074C827.513442 226.937592 838.686922 207.231785 831.809281 181.339068L831.809281 181.339068zM831.809281 181.339068M223.916281 730.256886l-73.072249-204.569142L63.182506 525.687744l0 20.462031 140.267651 350.681918 43.827181 0 144.66889-347.744006 0-23.399943L301.336558 525.687744 223.916281 730.256886zM223.916281 730.256886M564.352857 610.454336l37.981033 0 0-84.766592L434.313152 525.687744l0 84.766592 42.37511 0 0 201.614857-42.37511 0 0 84.762499 175.319981 0 0-83.299171-45.280276-2.908236L564.352857 610.454336zM564.352857 610.454336M868.275821 525.687744l-179.733501 0 0 371.143948 83.293031 0 0-92.047416 89.128947-4.399193c0 0 96.441493-16.062837 96.441493-138.804323C957.405791 538.843368 868.275821 525.687744 868.275821 525.687744L868.275821 525.687744zM844.897368 711.262276l-68.679196 0 0-99.367125 64.278979 0c0 0 33.619702 13.158694 33.619702 49.686632S844.897368 711.262276 844.897368 711.262276L844.897368 711.262276zM844.897368 711.262276" p-id="995" fill="#cacaca"></path></svg>